# xmcd
#
# Track frame offsets: 
#        150
#        15025
#        35778
#        52736
#        72946
#        93705
#        110922
#        130927
#        156288
#        177539
#
# Disc length: 2629 seconds
#
# Revision: 0
# Processed by: cddbd v1.5.2PL0 Copyright (c) Steve Scherf et al.
# Submitted via: ExactAudioCopyFreeDBPlugin 1.0
#
DISCID=860a430a
DTITLE=Terry Penney - The Last Guitar
DYEAR=2011
DGENRE=Country
TTITLE0=Girl From Coal Creek Canyon
TTITLE1=Shoal Herbour
TTITLE2=Not Without A Fight
TTITLE3=I Have Offered
TTITLE4=Ballad Of The Baymen Riders
TTITLE5=West Texas Moon
TTITLE6=Jesus Crisis
TTITLE7=Shells
TTITLE8=John Flood
TTITLE9=Last Guitar
EXTD=
EXTT0=
EXTT1=
EXTT2=
EXTT3=
EXTT4=
EXTT5=
EXTT6=
EXTT7=
EXTT8=
EXTT9=
PLAYORDER=
